<?xml version="1.0" encoding="utf-8"?>
<!-- Generator: Adobe Illustrator 16.0.0, SVG Export Plug-In . SVG Version: 6.00 Build 0)  -->
<!DOCTYPE svg PUBLIC "-//W3C//DTD SVG 1.1//EN" "http://www.w3.org/Graphics/SVG/1.1/DTD/svg11.dtd">
<svg version="1.1" id="Layer_2" xmlns="http://www.w3.org/2000/svg" xmlns:xlink="http://www.w3.org/1999/xlink" x="0px" y="0px"
	 width="183.388px" height="231px" viewBox="0 0 183.388 231" enable-background="new 0 0 183.388 231" xml:space="preserve">
<path d="M170.5,230.333H10.833V10H11V9h159.03v1h0.47V230.333z M13.833,227.333H167.5V13H13.833V227.333z M173.5,3H8V0h165.5V3z"/>
<rect y="228" width="180" height="3"/>
<rect x="11.15" y="222.653" width="159.03" height="3"/>
<rect x="5.28" y="4" transform="matrix(0.2873 0.9578 -0.9578 0.2873 12.7509 -6.1376)" width="10.44" height="3"/>
<rect x="169.53" y="0.28" transform="matrix(0.9578 0.2875 -0.2875 0.9578 8.8002 -48.9335)" width="3" height="10.44"/>
<path d="M45.26,104.667H25.5V70.333h19.76V104.667z M28.5,101.667h13.76V73.333H28.5V101.667z"/>
<path d="M82.26,104.667H62.5V70.333h19.76V104.667z M65.5,101.667h13.76V73.333H65.5V101.667z"/>
<g>
	<rect x="11.2" y="62.181" width="15.133" height="3"/>
	<rect x="43.96" y="62.002" width="21.74" height="3"/>
	<rect x="80.96" y="62.002" width="21.24" height="3"/>
	<rect x="116.46" y="62.002" width="21.74" height="3"/>
	<rect x="154.96" y="62.181" width="14.37" height="3"/>
</g>
<g>
	<path d="M60.873,63.811c0.275,0,0.5-0.225,0.5-0.5v-6.1c0-0.275,0.189-0.621,0.421-0.77l10.164-6.496
		c0.232-0.148,0.611-0.148,0.843,0l10.164,6.496c0.232,0.148,0.421,0.494,0.421,0.77v6.1c0,0.275,0.225,0.5,0.5,0.5h1.807
		c0.275,0,0.5-0.225,0.5-0.5v-8.407c0-0.275-0.189-0.621-0.421-0.77l-12.971-8.292c-0.232-0.148-0.611-0.148-0.843,0l-12.971,8.292
		c-0.232,0.148-0.421,0.494-0.421,0.77v8.407c0,0.275,0.225,0.5,0.5,0.5H60.873z"/>
</g>
<g>
	<path d="M22.502,63.851c0.274-0.022,0.723-0.04,0.998-0.04h0.374c0.275,0,0.5-0.225,0.5-0.5v-6.166c0-0.275,0.189-0.621,0.421-0.77
		l10.164-6.497c0.232-0.148,0.611-0.148,0.843,0l10.164,6.497c0.232,0.148,0.421,0.494,0.421,0.77v6.166c0,0.275,0.225,0.5,0.5,0.5
		h1.807c0.275,0,0.5-0.225,0.5-0.5v-8.476c0-0.275-0.189-0.621-0.421-0.77l-12.971-8.29c-0.232-0.148-0.611-0.148-0.843,0
		l-12.971,8.29c-0.232,0.148-0.421,0.494-0.421,0.77v8.69C21.567,63.801,22.228,63.873,22.502,63.851z"/>
</g>
<g>
	<path d="M97.873,63.811c0.275,0,0.5-0.225,0.5-0.5v-6.166c0-0.275,0.189-0.621,0.421-0.77l10.164-6.497
		c0.232-0.148,0.611-0.148,0.843,0l10.164,6.497c0.232,0.148,0.421,0.494,0.421,0.77v6.166c0,0.275,0.225,0.5,0.5,0.5h1.807
		c0.275,0,0.5-0.225,0.5-0.5v-8.476c0-0.275-0.189-0.621-0.421-0.77l-12.971-8.29c-0.232-0.148-0.611-0.148-0.843,0l-12.971,8.29
		c-0.232,0.148-0.421,0.494-0.421,0.77v8.476c0,0.275,0.225,0.5,0.5,0.5H97.873z"/>
</g>
<g>
	<path d="M134.873,63.811c0.275,0,0.5-0.225,0.5-0.5v-6.1c0-0.275,0.189-0.621,0.421-0.77l10.164-6.496
		c0.232-0.148,0.611-0.148,0.843,0l10.164,6.496c0.232,0.148,0.421,0.494,0.421,0.77v6.1c0,0.275,0.225,0.5,0.5,0.5h1.807
		c0.275,0,0.5-0.225,0.5-0.5v-8.407c0-0.275-0.189-0.621-0.421-0.77l-12.971-8.292c-0.232-0.148-0.611-0.148-0.843,0l-12.971,8.292
		c-0.232,0.148-0.421,0.494-0.421,0.77v8.407c0,0.275,0.225,0.5,0.5,0.5H134.873z"/>
</g>
<rect x="12" y="116.658" width="157.33" height="3"/>
<rect x="12" y="110.324" width="157.33" height="3"/>
<g>
	<rect x="29.5" y="111.824" width="3" height="5.334"/>
	<rect x="49.5" y="111.824" width="3" height="5.334"/>
	<rect x="69.5" y="111.824" width="3" height="5.334"/>
	<rect x="89.5" y="111.824" width="3" height="5.334"/>
	<rect x="109.5" y="111.824" width="3" height="5.334"/>
	<rect x="29.5" y="111.824" width="3" height="5.334"/>
	<rect x="129.5" y="111.824" width="3" height="5.334"/>
	<rect x="149.5" y="111.824" width="3" height="5.334"/>
</g>
<rect x="17.45" y="135.153" width="3" height="68.002"/>
<rect x="12" y="143.988" width="7.95" height="3"/>
<rect x="17.333" y="200.655" width="39.667" height="3"/>
<rect x="54.167" y="135.167" width="3" height="67.988"/>
<rect x="60.833" y="135.167" width="3" height="81"/>
<rect x="55" y="143.988" width="7.95" height="3"/>
<rect x="93.833" y="135.167" width="3" height="81"/>
<rect x="100.167" y="135.167" width="3" height="67.988"/>
<rect x="95" y="143.988" width="7.95" height="3"/>
<rect x="100.333" y="200.655" width="39.667" height="3"/>
<rect x="137" y="135.153" width="3" height="68.002"/>
<rect x="143.833" y="132.5" width="3" height="81"/>
<rect x="138" y="143.988" width="7.95" height="3"/>
<rect x="63" y="164.988" width="32" height="3"/>
<rect x="18.592" y="150" width="36.408" height="3"/>
<rect x="102.592" y="150" width="36.408" height="3"/>
<rect x="63" y="149.988" width="32" height="3"/>
<rect x="69.5" y="166.488" width="3" height="49.679"/>
<rect x="85.5" y="166.488" width="3" height="49.679"/>
<path d="M45.26,73.333H25.5v-14h19.76V73.333z M28.5,70.333h13.76v-8H28.5V70.333z"/>
<path d="M82.26,72.447H62.5V59.552h19.76V72.447z M65.5,69.447h13.76v-6.896H65.5V69.447z"/>
<path d="M119.26,104.667H99.5V70.333h19.76V104.667z M102.5,101.667h13.76V73.333H102.5V101.667z"/>
<path d="M119.26,73.333H99.5v-14h19.76V73.333z M102.5,70.333h13.76v-8H102.5V70.333z"/>
<path d="M156.26,104.667H136.5V70.333h19.76V104.667z M139.5,101.667h13.76V73.333H139.5V101.667z"/>
<path d="M156.26,73.333H136.5v-14h19.76V73.333z M139.5,70.333h13.76v-8H139.5V70.333z"/>
<rect x="63" y="213.335" width="32" height="3"/>
<rect x="58" y="212.794" transform="matrix(0.86 0.5104 -0.5104 0.86 120.271 0.3488)" width="3" height="13.064"/>
<rect x="91.468" y="217.826" transform="matrix(0.5103 0.86 -0.86 0.5103 236.6 23.1171)" width="13.064" height="3"/>
<rect x="60.667" y="132.997" width="36.1" height="3"/>
<rect x="17.35" y="132.663" width="39.8" height="3"/>
<rect x="100.1" y="132.663" width="39.8" height="3"/>
<rect x="144.667" y="149.997" width="18.667" height="3"/>
<rect x="161.833" y="132.5" width="3" height="81"/>
<rect x="162.811" y="143.988" width="6.967" height="3"/>
<rect x="144.667" y="132.5" width="18.667" height="3"/>
<rect x="144.667" y="161" width="18.667" height="3"/>
<rect x="144.667" y="210.5" width="18.667" height="3"/>
<g>
	<rect x="11.2" y="68.181" width="15.133" height="3"/>
	<rect x="43.96" y="68.002" width="21.74" height="3"/>
	<rect x="80.96" y="68.002" width="21.24" height="3"/>
	<rect x="116.46" y="68.002" width="21.74" height="3"/>
	<rect x="154.96" y="68.181" width="14.37" height="3"/>
</g>
</svg>
