<?xml version="1.0" encoding="utf-8"?>
<!-- Generator: Adobe Illustrator 16.0.0, SVG Export Plug-In . SVG Version: 6.00 Build 0)  -->
<!DOCTYPE svg PUBLIC "-//W3C//DTD SVG 1.1//EN" "http://www.w3.org/Graphics/SVG/1.1/DTD/svg11.dtd">
<svg version="1.1" id="Layer_1" xmlns="http://www.w3.org/2000/svg" xmlns:xlink="http://www.w3.org/1999/xlink" x="0px" y="0px"
	 width="67.326px" height="101.166px" viewBox="0 0 67.326 101.166" enable-background="new 0 0 67.326 101.166"
	 xml:space="preserve">
<g>
	<path fill="#fff" stroke="" stroke-width="3" stroke-miterlimit="10" d="M54.17,98.787
		c-0.262,0.483-0.926,0.879-1.476,0.879H5.628c-0.55,0-1.192-0.406-1.428-0.903l-2.613-5.525c-0.235-0.497,0.022-0.903,0.572-0.903
		h54.5c0.55,0,0.786,0.396,0.524,0.879L54.17,98.787z"/>
</g>
<g display="none">
	<path display="inline" d="M7.16,36.167c-0.55,0-1,0.45-1,1V59c0,0.55,0.45,1,1,1h1c0.55,0,1-0.45,1-1v-2.337
		c0-0.55,0.003-1.033,0.007-1.073c0.004-0.041,0.015-0.599,0.015-1.148V39.963c0-0.55,0.45-1,1-1h37.955c0.55,0,1,0.45,1,1v20.056
		c0,0.55,0.001,1.024,0.002,1.054c0,0.03,0.454,0.108,1.004,0.108h1.018c0.55,0,1-0.45,1-1V37.167c0-0.55-0.45-1-1-1H7.16z"/>
</g>
<path display="none" d="M49.136,58.889v30.445H9.181V58.073H6.16V89.64c0,0.843,1.129,1.527,2.518,1.527h40.963
	c1.389,0,2.519-0.685,2.519-1.527V58.889H49.136z"/>
<path d="M50.748,49.094c0.107,0.917,0.123,1.852,0.068,2.799c7.513,0.362,13.51,6.157,13.51,13.249
	c0,7.031-5.895,12.788-13.315,13.24c0.117,0.928,0.271,1.852,0.414,2.777c8.882-0.646,15.901-7.575,15.901-16.018
	C67.326,56.486,59.947,49.426,50.748,49.094z"/>
<line fill="none" stroke="#222C3D" stroke-width="3" stroke-miterlimit="10" x1="20.826" y1="15" x2="20.826" y2="30.5"/>
<line fill="none" stroke="#222C3D" stroke-width="3" stroke-miterlimit="10" x1="28.826" y1="0" x2="28.826" y2="26"/>
<line fill="none" stroke="#222C3D" stroke-width="3" stroke-miterlimit="10" x1="36.826" y1="11" x2="36.826" y2="30.5"/>
<g>
	<path fill="#FFFFFF" d="M50.826,88.5c0,0.55-0.45,1-1,1h-41c-0.55,0-1-0.45-1-1v-50c0-0.55,0.45-1,1-1h41c0.55,0,1,0.45,1,1V88.5z"
		/>
	<path fill="none" stroke="" stroke-width="3" stroke-miterlimit="10" d="M50.826,88.5c0,0.55-0.45,1-1,1h-41
		c-0.55,0-1-0.45-1-1v-50c0-0.55,0.45-1,1-1h41c0.55,0,1,0.45,1,1V88.5z"/>
</g>
</svg>
