<?xml version="1.0" encoding="utf-8"?>
<!-- Generator: Adobe Illustrator 16.0.0, SVG Export Plug-In . SVG Version: 6.00 Build 0)  -->
<!DOCTYPE svg PUBLIC "-//W3C//DTD SVG 1.1//EN" "http://www.w3.org/Graphics/SVG/1.1/DTD/svg11.dtd">
<svg version="1.1" id="Layer_1" xmlns="http://www.w3.org/2000/svg" xmlns:xlink="http://www.w3.org/1999/xlink" x="0px" y="0px"
	 width="102px" height="106.808px" viewBox="0 0 102 106.808" enable-background="new 0 0 102 106.808" xml:space="preserve">
<g>
	<rect x="9.115" y="38.308" fill="#fff" stroke="#222C3D" stroke-width="3" stroke-miterlimit="10" width="82.682" height="67"/>
	<rect x="1.5" y="24.017" fill="#fff" stroke="#222C3D" stroke-width="3" stroke-miterlimit="10" width="99" height="13.653"/>
	<rect x="8.843" y="64.308" fill="none" stroke="#222C3D" stroke-width="3" stroke-miterlimit="10" width="37.533" height="8"/>
	<rect x="46.648" y="38.308" fill="none" stroke="#222C3D" stroke-width="3" stroke-miterlimit="10" width="8.703" height="66.75"/>
	<rect x="55.623" y="64.308" fill="none" stroke="#222C3D" stroke-width="3" stroke-miterlimit="10" width="36.174" height="8"/>
	<path d="M65.132,0L48.458,12.961c0.439,0.378,0.856,0.789,1.256,1.223l1.253,0.626l13.637-10.6l3.069,3.948L50.983,21.13
		l-0.417-0.537c-0.5,0.099-1.032,0.007-1.472-0.27c-0.372,0.036-0.742,0.003-1.084-0.129c-0.615-0.238-1.083-0.572-1.498-0.989
		c-0.362-0.075-0.715-0.17-1.055-0.298l4.999,6.432L71.883,8.685L65.132,0z"/>
	<path d="M50.776,20.507l-0.54,0.695L33.546,8.23l3.069-3.948l12.342,9.594c0.193-0.039,0.387-0.058,0.583-0.058
		c0.312-0.821,0.812-1.562,1.529-2.099L36.088,0.072l-6.751,8.685l21.427,16.655l3.26-4.193c-0.481-0.085-0.897-0.253-1.286-0.453
		C52.072,20.726,51.417,20.646,50.776,20.507z"/>
</g>
</svg>
