<?xml version="1.0" encoding="utf-8"?>
<!-- Generator: Adobe Illustrator 16.0.0, SVG Export Plug-In . SVG Version: 6.00 Build 0)  -->
<!DOCTYPE svg PUBLIC "-//W3C//DTD SVG 1.1//EN" "http://www.w3.org/Graphics/SVG/1.1/DTD/svg11.dtd">
<svg version="1.1" id="Layer_1" xmlns="http://www.w3.org/2000/svg" xmlns:xlink="http://www.w3.org/1999/xlink" x="0px" y="0px"
	 width="135.871px" height="96.42px" viewBox="0 0 135.871 96.42" enable-background="new 0 0 135.871 96.42" xml:space="preserve">
<path d="M96.58,17.839c-21.665,0-39.291,17.626-39.291,39.291c0,6.907,1.797,13.398,4.94,19.044c0.5-0.938,1.281-1.7,2.236-2.171
	c-2.661-5.044-4.176-10.784-4.176-16.873c0-20.011,16.28-36.291,36.291-36.291s36.291,16.28,36.291,36.291
	s-16.28,36.29-36.291,36.29c-8.503,0-16.32-2.951-22.513-7.867c-0.375,0.939-1.017,1.76-1.931,2.291
	c6.715,5.357,15.205,8.576,24.443,8.576c21.665,0,39.291-17.625,39.291-39.29S118.245,17.839,96.58,17.839z"/>
<path d="M73.154,37.332c-0.358,1.031-1.03,1.938-2.015,2.511c2.811,5.146,4.442,11.023,4.442,17.289
	c0,20.01-16.281,36.289-36.292,36.289S3,77.141,3,57.131C3,37.12,19.28,20.84,39.291,20.84c9.087,0,17.398,3.365,23.772,8.905
	c0.313-0.973,0.901-1.842,1.762-2.44c-6.873-5.893-15.792-9.465-25.534-9.465C17.625,17.84,0,35.466,0,57.131
	C0,78.795,17.625,96.42,39.291,96.42s39.292-17.625,39.292-39.289C78.582,49.903,76.578,43.153,73.154,37.332z"/>
<path d="M30.066,20.152l-5.99-14.629L33.575,0h11.444l9.484,5.473l-5.942,14.65L30.066,20.152z M27.842,6.803l4.236,10.346
	l14.461-0.023l4.202-10.36L44.215,3h-9.832L27.842,6.803z"/>
<polygon points="39.293,11.002 25.703,8.641 26.216,5.685 39.289,7.956 52.361,5.643 52.883,8.597 "/>
</svg>
